<?xml version="1.0" encoding="UTF-8"?>
<svg width="56px" height="56px" viewBox="0 0 56 56" version="1.1" xmlns="http://www.w3.org/2000/svg" xmlns:xlink="http://www.w3.org/1999/xlink">
    <!-- Generator: sketchtool 46.2 (44496) - http://www.bohemiancoding.com/sketch -->
    <title>41CC7C55-380E-4F84-8767-3D7B21A425F2</title>
    <desc>Created with sketchtool.</desc>
    <defs></defs>
    <g id="Symbols" stroke="none" stroke-width="1" fill="none" fill-rule="evenodd">
        <g id="aww-logo-small">
            <g>
                <rect id="Rectangle-9" fill-opacity="0.2" fill="#FF0000" opacity="0" x="0" y="0" width="56" height="56"></rect>
                <g id="aww-logo" transform="translate(3.000000, 15.000000)" fill-rule="nonzero" fill="#3CC476">
                    <path d="M14.1253731,14.3428451 C14.5776119,14.5830704 15.7458955,14.6753521 15.9152985,14.1026197 C16.2544776,12.9373803 15.5764925,11.7728732 15.0679104,10.6819718 C14.6529851,11.1810986 14.5589552,11.772507 14.4835821,12.3459718 C14.3705224,13.104 13.6358209,14.0839437 14.1253731,14.3428451 Z" id="Shape"></path>
                    <path d="M45.1399254,10.2190986 C45.1115672,10.2450986 45.0824627,10.2710986 45.0541045,10.2970986 C45.2996269,9.44092958 45.4701493,8.55839437 45.5436567,7.64033803 C45.6593284,6.19202817 44.5179104,5.19121127 43.2339552,4.96270423 C43.5037313,2.87940845 40.925,1.08394366 39.019403,2.30667606 C38.1134328,2.88783099 37.2261194,3.49169014 36.3537313,4.11349296 C35.6682836,3.34594366 34.569403,2.89735211 33.4791045,3.15515493 C32.1966418,3.4583662 31.0171642,3.92014085 29.911194,4.49543662 C30.011194,4.26876056 30.113806,4.04391549 30.2097015,3.81504225 C31.1141791,1.66143662 27.9768657,-0.695408451 26.0929104,0.720676056 C23.8317164,2.42056338 22.0738806,4.50971831 20.366791,6.66405634 C20.4231343,5.59256338 19.8309701,4.6796338 18.9914179,4.1735493 C19.1466418,1.64825352 15.2985075,-0.069943662 13.7757463,2.62233803 C11.066791,7.41256338 8.37462687,12.2862817 4.64477612,16.3400845 C3.5641791,17.4324507 2.45149254,18.4958873 1.28320896,19.5069577 C-1.45261194,21.8758873 2.51716418,25.5766761 5.26268657,23.3707042 C5.36567164,23.2879437 5.46268657,23.2004225 5.56455224,23.1169296 C5.62462687,25.2452676 8.35037313,26.5602817 10.3410448,24.9567042 C11.8276119,23.7588732 13.2440299,22.5039155 14.616791,21.2075775 C15.4059701,21.9831831 16.6145522,22.2944507 17.8473881,21.5426479 C17.9552239,21.4767324 18.0574627,21.4038592 18.1645522,21.3368451 C18.308209,23.4172113 20.7451493,25.0222535 22.8059701,23.1443944 C23.7537313,22.2809014 24.6947761,21.4075211 25.6350746,20.5315775 C24.4865672,22.7060563 27.4720149,25.6590704 29.6201493,24.0342535 C31.0720149,22.9363944 32.4544776,21.7770141 33.7921642,20.5755211 C33.7156716,20.8454085 33.641791,21.1171268 33.5824627,21.3932394 C33.016791,24.0302254 36.2022388,26.0692113 38.2716418,24.05 C41.7869403,20.6223944 45.5014925,17.4024225 49.1208955,14.0828451 C51.7570896,11.6633803 47.7757463,7.80146479 45.1399254,10.2190986 L45.1399254,10.2190986 Z M18.7223881,18.3549014 C18.6470149,18.8540282 17.6485075,19.0763099 17.2716418,18.5951268 C16.6309701,17.7448169 17.1018657,16.376338 16.1787313,15.8405915 C15.4817164,15.4520563 14.388806,15.5816901 13.7108209,16.099493 C12.844403,16.7465634 13.4470149,19.5937465 11.5067164,18.6877746 C11.2429104,17.5229014 11.9208955,16.432 12.1847015,15.2671268 C12.5238806,13.7693803 12.9384328,12.1789859 13.4470149,10.6819718 C13.8615672,9.49878873 13.8048507,8.25957746 14.483209,7.35360563 C14.6526119,7.09470423 15.5570896,6.85447887 15.7455224,7.26095775 C16.7440299,9.35047887 17.1018657,11.6062535 17.7048507,13.936 C17.7048507,14.1762254 18.1190299,14.1762254 18.288806,14.4351268 C18.3828358,14.6017465 18.3828358,14.8419718 18.288806,14.9342535 C17.7052239,16.1730986 18.891791,17.1900282 18.7223881,18.3549014 L18.7223881,18.3549014 Z M30.1022388,11.9761127 C30.1022388,13.2336338 29.8011194,14.4904225 29.3108209,15.7479437 C29.1037313,16.1364789 28.8970149,16.5986197 28.5201493,16.894507 C27.4268657,17.763493 26.5414179,16.8018592 26.0518657,15.8405915 C25.6559701,15.0638873 25.3742537,14.4904225 24.8652985,13.8063662 C23.7910448,15.2671268 23.3014925,18.3549014 20.833209,17.7818028 C19.2507463,15.6552958 18.7608209,12.8450986 19.2507463,10.2377746 C19.458209,9.55371831 20.569403,8.96194366 21.0216418,9.646 C21.7376866,10.6999155 20.9276119,11.9757465 21.2291045,13.2332676 C21.4365672,14.1022535 21.4175373,14.9712394 22.0201493,15.6552958 C23,14.5827042 23.0940299,13.029662 23.9794776,11.9757465 C25.3552239,10.3300563 26.6544776,12.5488451 27.1451493,14.0096056 C27.1451493,14.1945352 27.4272388,14.6749859 27.5402985,14.5827042 C28.9164179,12.9370141 27.6350746,10.810507 28.1246269,8.86929577 C28.3126866,8.49943662 29.1231343,8.09259155 29.5,8.38847887 C30.591791,9.25783099 30.1022388,10.7185915 30.1022388,11.9761127 L30.1022388,11.9761127 Z M41.5768657,11.9761127 C41.5768657,13.2336338 41.2757463,14.4904225 40.7854478,15.7479437 C40.5783582,16.1364789 40.3716418,16.5986197 39.9947761,16.894507 C38.9014925,17.763493 38.0160448,16.8018592 37.5264925,15.8405915 C37.130597,15.0638873 36.8488806,14.4904225 36.3399254,13.8063662 C35.2656716,15.2671268 34.7761194,18.3549014 32.3074627,17.7818028 C30.7253731,15.6552958 30.2354478,12.8450986 30.7253731,10.2377746 C30.9324627,9.55371831 32.0436567,8.96194366 32.4962687,9.646 C33.2119403,10.6999155 32.4022388,11.9757465 32.7033582,13.2332676 C32.911194,14.1022535 32.8921642,14.9712394 33.4947761,15.6552958 C34.4742537,14.5827042 34.5682836,13.029662 35.4537313,11.9757465 C36.8298507,10.3300563 38.1291045,12.5488451 38.619403,14.0096056 C38.619403,14.1945352 38.9014925,14.6749859 39.0145522,14.5827042 C40.3906716,12.9370141 39.1093284,10.810507 39.5988806,8.86929577 C39.7869403,8.49943662 40.5973881,8.09259155 40.9742537,8.38847887 C42.0664179,9.25783099 41.5768657,10.7185915 41.5768657,11.9761127 L41.5768657,11.9761127 Z" id="Shape"></path>
                </g>
            </g>
        </g>
    </g>
</svg>